<svg width="19" height="19" viewBox="0 0 19 19" fill="none" xmlns="http://www.w3.org/2000/svg">
<path d="M4.61082 2.24409C4.54441 2.15866 4.46058 2.08833 4.3649 2.03779C4.26922 1.98725 4.16388 1.95764 4.05588 1.95094C3.94788 1.94423 3.83969 1.96059 3.73849 1.99891C3.6373 2.03723 3.54541 2.09665 3.46895 2.17321L2.3057 3.33759C1.76232 3.88209 1.56207 4.65271 1.79945 5.32884C2.78465 8.12737 4.38728 10.6682 6.48845 12.7628C8.58311 14.864 11.1239 16.4666 13.9224 17.4518C14.5986 17.6892 15.3692 17.489 15.9137 16.9456L17.0769 15.7823C17.1535 15.7059 17.2129 15.614 17.2512 15.5128C17.2896 15.4116 17.3059 15.3034 17.2992 15.1954C17.2925 15.0874 17.2629 14.9821 17.2124 14.8864C17.1618 14.7907 17.0915 14.7069 17.0061 14.6405L14.4107 12.6222C14.3194 12.5514 14.2133 12.5023 14.1002 12.4785C13.9872 12.4547 13.8703 12.4569 13.7582 12.485L11.2944 13.1003C10.9656 13.1825 10.621 13.1782 10.2944 13.0877C9.9677 12.9972 9.67002 12.8237 9.43032 12.584L6.66732 9.81984C6.42744 9.58025 6.25369 9.28263 6.163 8.95595C6.07231 8.62927 6.06777 8.28467 6.14982 7.95571L6.76632 5.49196C6.79434 5.37991 6.79655 5.26295 6.77277 5.14992C6.749 5.03689 6.69986 4.93073 6.62907 4.83946L4.61082 2.24409ZM2.61957 1.32496C2.81644 1.12803 3.05295 0.975234 3.3134 0.876719C3.57385 0.778204 3.85228 0.736224 4.1302 0.753567C4.40812 0.770911 4.67917 0.84718 4.92535 0.977312C5.17153 1.10744 5.38721 1.28846 5.55807 1.50834L7.57632 4.10259C7.94645 4.57846 8.07695 5.19834 7.9307 5.78334L7.31532 8.24709C7.28351 8.3747 7.28522 8.50836 7.32031 8.63511C7.3554 8.76186 7.42266 8.87738 7.51557 8.97046L10.2797 11.7346C10.3729 11.8277 10.4886 11.8951 10.6156 11.9302C10.7425 11.9652 10.8764 11.9669 11.0042 11.9348L13.4668 11.3195C13.7555 11.2473 14.0568 11.2417 14.348 11.3031C14.6392 11.3645 14.9126 11.4912 15.1476 11.6738L17.7418 13.6921C18.6744 14.4177 18.7599 15.7958 17.9252 16.6295L16.7619 17.7927C15.9294 18.6252 14.6852 18.9908 13.5253 18.5825C10.5567 17.5379 7.86125 15.8384 5.63907 13.61C3.41077 11.3881 1.71126 8.6931 0.666572 5.72484C0.259322 4.56609 0.624947 3.32071 1.45745 2.48821L2.6207 1.32496H2.61957Z" fill="#037B35"/>
</svg>
