<svg width="24" height="26" viewBox="0 0 24 26" fill="none" xmlns="http://www.w3.org/2000/svg">
<path d="M1.31296 16.7161C2.63383 15.3781 4.30714 14.7074 6.33977 14.7074C7.36292 14.7074 8.28342 14.882 9.10126 15.2344C9.9191 15.5835 10.5693 16.0386 11.0552 16.5963C11.5411 17.1541 11.9209 17.7119 12.2015 18.2662C12.4787 18.824 12.6806 19.3886 12.8072 19.9635H9.44004C8.89937 18.5263 7.86595 17.8077 6.33977 17.8077C5.31661 17.8077 4.45429 18.1841 3.75279 18.9404C3.0513 19.6932 2.70226 20.665 2.70226 21.8524C2.70226 23.0398 3.0513 24.0082 3.75279 24.7645C3.84176 24.8603 3.93073 24.9493 4.02655 25.0314H8.11233H8.63588C8.98492 24.6687 9.25525 24.1964 9.44346 23.6045H12.8106C12.7114 24.0904 12.5608 24.566 12.3624 25.0314H23.2851L14.6722 0H6.87017L1.17608 16.5519L0.991302 17.0925C1.09054 16.9625 1.19662 16.8359 1.31296 16.7161Z" fill="white"/>
</svg>
